<mxfile host="app.diagrams.net" modified="2024-06-30T09:57:41.195Z" agent="Mozilla/5.0 (Windows NT 10.0; Win64; x64) AppleWebKit/537.36 (KHTML, like Gecko) Chrome/123.0.0.0 Safari/537.36 OPR/109.0.0.0" etag="B_OQ1R-_f5T_avZlF07H" version="24.6.4" type="github">
  <diagram name="Page-1" id="mTxW90itcaq0r1PfPk89">
    <mxGraphModel dx="1009" dy="581" grid="1" gridSize="10" guides="1" tooltips="1" connect="1" arrows="1" fold="1" page="1" pageScale="1" pageWidth="850" pageHeight="1100" math="0" shadow="0">
      <root>
        <mxCell id="0" />
        <mxCell id="1" parent="0" />
        <mxCell id="rR1IcOJ0TdtoFGJN7YsJ-1" value="Game Manager" style="rounded=0;whiteSpace=wrap;html=1;" parent="1" vertex="1">
          <mxGeometry x="80" y="110" width="120" height="60" as="geometry" />
        </mxCell>
        <mxCell id="rR1IcOJ0TdtoFGJN7YsJ-4" value="&lt;div&gt;- List of all Unit Scriptable Objects.&lt;/div&gt;&lt;div&gt;- List of Scriptable Objects for loading enemies in.&lt;/div&gt;&lt;div&gt;- List of gates to different stages in current scene.&lt;/div&gt;&lt;div&gt;- List of enemies in current scene.&lt;br&gt;&lt;/div&gt;&lt;div&gt;- Enum list for game states (set up, in combat, roaming, safe zone)&lt;/div&gt;&lt;div&gt;- Scriptable Object of checkpoints/save file&lt;/div&gt;&lt;div&gt;---------------------------------------------&lt;/div&gt;&lt;div&gt;- void FakeUpdate() method: includes LoadStage(); StateUpdate(); AudioChange()&lt;/div&gt;&lt;div&gt;- void LoadStage() method: load scenes and spawn player at checkpoints&amp;nbsp;&lt;span style=&quot;background-color: initial;&quot;&gt;based on save file&lt;/span&gt;&lt;span style=&quot;background-color: initial;&quot;&gt;, spawn enemies also adds them to list&amp;nbsp;&lt;/span&gt;&lt;span style=&quot;background-color: initial;&quot;&gt;based on scene&lt;/span&gt;&lt;span style=&quot;background-color: initial;&quot;&gt;.&lt;/span&gt;&lt;/div&gt;&lt;div&gt;- gamestates StateUpdate() method: Change state depending on info from enemies list.&lt;/div&gt;&lt;div&gt;- void LoadNextStage() method: Loading scene when player interacts with gates.&lt;/div&gt;&lt;div&gt;- String AudioChange() method: Change music depending on game state.&lt;/div&gt;" style="rounded=1;whiteSpace=wrap;html=1;align=left;" parent="1" vertex="1">
          <mxGeometry y="210" width="240" height="380" as="geometry" />
        </mxCell>
        <mxCell id="rR1IcOJ0TdtoFGJN7YsJ-5" value="" style="endArrow=none;html=1;rounded=0;exitX=0.5;exitY=0;exitDx=0;exitDy=0;entryX=0.5;entryY=1;entryDx=0;entryDy=0;" parent="1" source="rR1IcOJ0TdtoFGJN7YsJ-4" target="rR1IcOJ0TdtoFGJN7YsJ-1" edge="1">
          <mxGeometry width="50" height="50" relative="1" as="geometry">
            <mxPoint x="400" y="330" as="sourcePoint" />
            <mxPoint x="450" y="280" as="targetPoint" />
          </mxGeometry>
        </mxCell>
        <mxCell id="rR1IcOJ0TdtoFGJN7YsJ-6" value="Game view (monobehaviour)" style="rounded=0;whiteSpace=wrap;html=1;" parent="1" vertex="1">
          <mxGeometry x="260" y="110" width="120" height="60" as="geometry" />
        </mxCell>
        <mxCell id="rR1IcOJ0TdtoFGJN7YsJ-7" value="Content&lt;div&gt;- Central Update () method&lt;/div&gt;&lt;div&gt;&lt;span style=&quot;white-space: pre;&quot;&gt;&#x9;&lt;/span&gt;+ GameManager.FakeUpdate()&lt;br&gt;&lt;/div&gt;&lt;div&gt;&lt;span style=&quot;white-space: pre;&quot;&gt;&#x9;&lt;/span&gt;+&amp;nbsp;&lt;br&gt;&lt;/div&gt;" style="rounded=1;whiteSpace=wrap;html=1;align=left;" parent="1" vertex="1">
          <mxGeometry x="260" y="210" width="210" height="100" as="geometry" />
        </mxCell>
        <mxCell id="rR1IcOJ0TdtoFGJN7YsJ-8" value="" style="endArrow=none;html=1;rounded=0;exitX=0.5;exitY=1;exitDx=0;exitDy=0;entryX=0.5;entryY=0;entryDx=0;entryDy=0;" parent="1" source="rR1IcOJ0TdtoFGJN7YsJ-6" target="rR1IcOJ0TdtoFGJN7YsJ-7" edge="1">
          <mxGeometry width="50" height="50" relative="1" as="geometry">
            <mxPoint x="150" y="220" as="sourcePoint" />
            <mxPoint x="150" y="180" as="targetPoint" />
          </mxGeometry>
        </mxCell>
      </root>
    </mxGraphModel>
  </diagram>
</mxfile>
